<svg width="256" height="256" viewBox="0 0 256 256" fill="none" xmlns="http://www.w3.org/2000/svg">
  <rect x="16" y="16" width="224" height="224" rx="48" fill="#FFFFFF" stroke="#111111" stroke-width="6"/>

  <path d="M50 74C50 63 59 54 70 54H118C129 54 138 63 138 74V108C138 119 129 128 118 128H90L66 146V128H70C59 128 50 119 50 108V74Z"
        fill="#FFFFFF" stroke="#111111" stroke-width="5"/>

  <circle cx="79" cy="91" r="4.5" fill="#111111"/>
  <circle cx="94" cy="91" r="4.5" fill="#111111"/>
  <circle cx="109" cy="91" r="4.5" fill="#111111"/>

  <path d="M138 92H172M172 92L182 82M172 92L182 102M172 92V130M172 130L202 130M172 130L172 164M172 164L200 178"
        stroke="#111111" stroke-width="5" stroke-linecap="round" stroke-linejoin="round"/>

  <circle cx="182" cy="82" r="7" fill="#FFFFFF" stroke="#111111" stroke-width="4"/>
  <circle cx="182" cy="102" r="7" fill="#FFFFFF" stroke="#111111" stroke-width="4"/>
  <circle cx="202" cy="130" r="9" fill="#FFFFFF" stroke="#111111" stroke-width="4"/>
  <circle cx="200" cy="178" r="8" fill="#FFFFFF" stroke="#111111" stroke-width="4"/>
  <circle cx="172" cy="130" r="6" fill="#111111"/>
</svg>
