<svg width="256" height="256" viewBox="0 0 256 256" fill="none" xmlns="http://www.w3.org/2000/svg">
  <rect x="16" y="16" width="224" height="224" rx="48" fill="#FFFFFF" stroke="#111111" stroke-width="6"/>

  <polygon points="128,54 170,78 170,126 128,150 86,126 86,78" fill="#FFFFFF" stroke="#111111" stroke-width="5"/>
  <text x="128" y="112" text-anchor="middle" font-family="Segoe UI, Arial, sans-serif" font-size="28" font-weight="800" fill="#111111">N</text>

  <circle cx="128" cy="42" r="9" fill="#FFFFFF" stroke="#111111" stroke-width="4"/>
  <circle cx="56" cy="84" r="9" fill="#FFFFFF" stroke="#111111" stroke-width="4"/>
  <circle cx="56" cy="172" r="9" fill="#FFFFFF" stroke="#111111" stroke-width="4"/>
  <circle cx="128" cy="214" r="9" fill="#FFFFFF" stroke="#111111" stroke-width="4"/>
  <circle cx="200" cy="172" r="9" fill="#FFFFFF" stroke="#111111" stroke-width="4"/>
  <circle cx="200" cy="84" r="9" fill="#FFFFFF" stroke="#111111" stroke-width="4"/>

  <path d="M128 53V78M68 89L92 103M68 167L92 153M128 203V178M188 167L164 153M188 89L164 103"
        stroke="#111111" stroke-width="5" stroke-linecap="round"/>

  <circle cx="128" cy="128" r="6" fill="#111111"/>
</svg>
